<svg width="1600" height="900" viewBox="0 0 1600 900" fill="none" xmlns="http://www.w3.org/2000/svg">
  <defs>
    <linearGradient id="bg" x1="0" y1="0" x2="1600" y2="900" gradientUnits="userSpaceOnUse">
      <stop offset="0" stop-color="#0F172A"/>
      <stop offset="1" stop-color="#1E40AF"/>
    </linearGradient>
    <linearGradient id="accent" x1="0" y1="0" x2="1" y2="1">
      <stop offset="0" stop-color="#06B6D4"/>
      <stop offset="1" stop-color="#2563EB"/>
    </linearGradient>
  </defs>
  <rect width="1600" height="900" fill="url(#bg)"/>
  <circle cx="260" cy="180" r="220" fill="#06B6D4" fill-opacity="0.12"/>
  <circle cx="1320" cy="760" r="260" fill="#2563EB" fill-opacity="0.16"/>
  <g opacity="0.84">
    <rect x="380" y="330" width="840" height="390" rx="30" fill="#0B1222" stroke="#4F46E5" stroke-opacity="0.35"/>
    <rect x="730" y="276" width="140" height="72" rx="14" fill="#0B1222" stroke="#06B6D4" stroke-opacity="0.6"/>
    <rect x="420" y="370" width="760" height="20" rx="10" fill="url(#accent)" fill-opacity="0.72"/>
    <rect x="470" y="450" width="300" height="200" rx="14" fill="#111827" stroke="#06B6D4" stroke-opacity="0.5"/>
    <rect x="820" y="450" width="310" height="60" rx="10" fill="#1E293B"/>
    <rect x="820" y="530" width="280" height="24" rx="8" fill="#334155"/>
    <rect x="820" y="566" width="250" height="24" rx="8" fill="#334155"/>
    <rect x="820" y="602" width="210" height="24" rx="8" fill="#334155"/>
  </g>
  <g opacity="0.35" stroke="#22D3EE">
    <path d="M120 130H1480"/>
    <path d="M120 220H1480"/>
    <path d="M120 760H1480"/>
  </g>
</svg>
